HIERARCHY
ROOT RootJoint
{
    OFFSET   0.000000   0.000000   0.000000
    CHANNELS 6 Xposition Yposition Zposition Xrotation Yrotation Zrotation
    JOINT pelvis_lowerback
    {
        OFFSET   0.000000   0.093605   0.000000
        CHANNELS 3 Xrotation Yrotation Zrotation
        JOINT lowerback_torso
        {
            OFFSET   0.000000   0.100000   0.000000
            CHANNELS 3 Xrotation Yrotation Zrotation
            JOINT torso_head
            {
                OFFSET   0.000000   0.282350   0.000000
                CHANNELS 3 Xrotation Yrotation Zrotation
                End Site
                {
                    OFFSET   0.000000   0.192650   0.000000
                }
            }
            JOINT rTorso_Clavicle
            {
                OFFSET  -0.001000   0.157500   0.000000
                CHANNELS 3 Xrotation Yrotation Zrotation
                JOINT rShoulder
                {
                    OFFSET  -0.117647   0.000000   0.000000
                    CHANNELS 3 Xrotation Yrotation Zrotation
                    JOINT rElbow
                    {
                        OFFSET  -0.245000   0.000000   0.000000
                        CHANNELS 3 Xrotation Yrotation Zrotation
                        JOINT rWrist
                        {
                            OFFSET  -0.240000   0.000000   0.000000
                            CHANNELS 3 Xrotation Yrotation Zrotation
                            End Site
                            {
                                OFFSET  -0.116353  -0.002500   0.000000
                            }
                        }
                    }
                }
            }
            JOINT lTorso_Clavicle
            {
                OFFSET   0.001000   0.157500   0.000000
                CHANNELS 3 Xrotation Yrotation Zrotation
                JOINT lShoulder
                {
                    OFFSET   0.117647   0.000000   0.000000
                    CHANNELS 3 Xrotation Yrotation Zrotation
                    JOINT lElbow
                    {
                        OFFSET   0.245000   0.000000   0.000000
                        CHANNELS 3 Xrotation Yrotation Zrotation
                        JOINT lWrist
                        {
                            OFFSET   0.240000   0.000000   0.000000
                            CHANNELS 3 Xrotation Yrotation Zrotation
                            End Site
                            {
                                OFFSET   0.116353  -0.002500   0.000000
                            }
                        }
                    }
                }
            }
        }
    }
    JOINT rHip
    {
        OFFSET  -0.100000  -0.051395   0.000000
        CHANNELS 3 Xrotation Yrotation Zrotation
        JOINT rKnee
        {
            OFFSET   0.000000  -0.410000   0.000000
            CHANNELS 3 Xrotation Yrotation Zrotation
            JOINT rAnkle
            {
                OFFSET   0.000000  -0.390000   0.000000
                CHANNELS 3 Xrotation Yrotation Zrotation
                JOINT rToeJoint
                {
                    OFFSET   0.000000  -0.050000   0.130000
                    CHANNELS 3 Xrotation Yrotation Zrotation
                    End Site
                    {
                        OFFSET  -0.010000   0.002000   0.060000
                    }
                }
            }
        }
    }
    JOINT lHip
    {
        OFFSET   0.100000  -0.051395   0.000000
        CHANNELS 3 Xrotation Yrotation Zrotation
        JOINT lKnee
        {
            OFFSET   0.000000  -0.410000   0.000000
            CHANNELS 3 Xrotation Yrotation Zrotation
            JOINT lAnkle
            {
                OFFSET   0.000000  -0.390000   0.000000
                CHANNELS 3 Xrotation Yrotation Zrotation
                JOINT lToeJoint
                {
                    OFFSET   0.000000  -0.050000   0.130000
                    CHANNELS 3 Xrotation Yrotation Zrotation
                    End Site
                    {
                        OFFSET   0.010000   0.002000   0.060000
                    }
                }
            }
        }
    }
}
MOTION
Frames: 10
Frame Time:   0.008333
 -2.362396   0.669792   3.887780  13.919199  -2.078431  -3.117781  50.690452  -1.408821   0.680142 -10.262194  -1.185116  -2.471793 -16.009771   2.533885  -4.150641 -17.002383  36.677759   3.750704 -29.296966  24.906849  13.357960  -0.189693  30.363985   0.064426  -0.389592   2.512049  -8.773903 -18.677602 -30.354948  -0.060258 -29.572221 -19.122955 -12.042798  -0.235963 -33.520861  -0.112185  -4.362124  -5.438486   6.900741 -66.063219  -4.804099  -7.742874  90.887031   0.000453   0.001462 -37.648724 -10.340968  -0.926735  -0.283456   0.000186   0.001548 -68.502081   0.592692   9.490175  95.757219   0.000184   0.000201 -34.953621   4.531653   1.342863 -11.301028  -0.004352  -0.003549
 -2.360817   0.673546   3.891933  13.489349  -2.122657  -3.202649  49.749896  -1.391059   0.596217 -10.195960  -1.330863  -2.394550 -15.620152   2.567260  -4.162426 -17.385461  37.311783   2.369866 -30.568974  25.864530  12.376213  -0.199911  31.596183   0.064829  -0.433679   2.439347  -8.838068 -18.843652 -31.045041   1.710612 -30.838312 -20.261518 -10.826814  -0.248653 -34.977742  -0.110823  -4.516829  -5.549067   6.935107 -64.845384  -4.994216  -7.835818  90.215844   0.000642   0.002640 -37.689102 -10.529459  -0.572445  -0.312803   0.000206   0.001346 -67.687060   0.569821   9.448090  95.628679   0.000215   0.000298 -33.922299   4.597542   1.031995 -12.988614  -0.006938  -0.002295
 -2.359091   0.678244   3.896639  13.141182  -2.189904  -3.248944  48.761260  -1.347502   0.491287 -10.151473  -1.458552  -2.325465 -15.182097   2.597821  -4.182068 -17.775564  37.840955   0.985291 -31.760451  26.779470  11.382258  -0.205450  32.756279   0.064118  -0.460342   2.427990  -8.992342 -19.007088 -31.638140   3.489812 -32.014801 -21.364327  -9.621956  -0.256311 -36.355792  -0.107859  -4.643283  -5.776530   7.005635 -63.583415  -5.165026  -7.932328  89.365303   0.000857   0.004127 -37.662219 -10.705213  -0.249671  -0.363249   0.000243   0.001263 -66.848575   0.586084   9.373563  95.353749   0.000370   0.000611 -32.693745   4.647137   0.766226 -14.974038  -0.008861  -0.000265
 -2.357280   0.683523   3.902012  12.879619  -2.268734  -3.286569  47.690646  -1.285147   0.395390 -10.190780  -1.559464  -2.254812 -14.749537   2.625579  -4.202684 -18.146605  38.301673  -0.352851 -32.869319  27.645972  10.425912  -0.206863  33.839433   0.063035  -0.480318   2.427011  -9.218666 -19.157987 -32.148345   5.212555 -33.103431 -22.408707  -8.465146  -0.259248 -37.643744  -0.104305  -4.754874  -6.026170   7.149219 -62.315935  -5.329231  -8.020508  88.414393   0.000921   0.005613 -37.563311 -10.864111   0.045153  -0.508147   0.000350   0.001519 -65.985984   0.631053   9.292755  94.965742   0.000567   0.001049 -31.442188   4.699832   0.528207 -17.037893  -0.010165   0.001338
 -2.355394   0.689155   3.908106  12.692773  -2.360808  -3.312700  46.530437  -1.206630   0.306678 -10.325491  -1.634437  -2.183214 -14.340140   2.651138  -4.221812 -18.490231  38.710840  -1.630213 -33.898883  28.465869   9.522908  -0.205138  34.850490   0.061801  -0.497946   2.424606  -9.478790 -19.293487 -32.589763   6.859326 -34.108829 -23.392916  -7.368889  -0.258375 -38.845234  -0.100443  -4.857375  -6.267107   7.343633 -61.061218  -5.504213  -8.115113  87.415512   0.001038   0.007092 -37.393683 -11.039909   0.318123   0.067124  -0.000127  -0.001001 -65.069707   0.702786   9.210131  94.542045   0.000767   0.001467 -30.194382   4.753426   0.312912 -19.273193  -0.010890   0.002820
 -2.353478   0.694966   3.914908  12.567694  -2.449047  -3.338785  45.287210  -1.114143   0.235514 -10.553783  -1.687388  -2.104138 -13.958714   2.674895  -4.237829 -18.807210  39.078637  -2.845563 -34.854635  29.242152   8.674787  -0.201130  35.794272   0.060448  -0.514881   2.419106  -9.752477 -19.416136 -32.975489   8.427616 -35.037704 -24.320963  -6.334131  -0.254573 -39.965733  -0.096358  -4.953331  -6.491783   7.570804 -59.800338  -5.665672  -8.200999  86.381369   0.000817   0.008317 -37.216033 -11.187935   0.559543  -0.429396   0.000006   0.000888 -64.136230   0.788329   9.125509  94.067660   0.000931   0.001857 -28.980745   4.799420   0.115010 -21.526619  -0.011252   0.003902
 -2.351553   0.700826   3.922413  12.488420  -2.528870  -3.365663  43.972720  -1.009931   0.180828 -10.868792  -1.721667  -2.017882 -13.605897   2.697151  -4.250554 -19.100436  39.411540  -3.999461 -35.742412  29.977693   7.879468  -0.195506  36.675666   0.058965  -0.531367   2.412484 -10.032340 -19.529455 -33.314730   9.917995 -35.896809 -25.197134  -5.358429  -0.248586 -41.011167  -0.092105  -5.043577  -6.702209   7.821231 -58.537342  -5.814049  -8.282416  85.352818   0.000330   0.009215 -37.005923 -11.323733   0.779594  -1.015696  -0.000202   0.002526 -63.185767   0.882529   9.038526  93.568678   0.001042   0.002173 -27.799280   4.836198  -0.064996 -23.809385  -0.011273   0.004720
 -2.349337   0.710333   3.929998  12.157568  -2.486365  -3.178932  42.965616  -0.959288  -0.039956 -10.667449  -1.794168  -1.925921 -13.150999   2.546138  -4.282691 -19.460884  39.528958  -5.531638 -36.580152  30.500517   7.140376  -0.192961  37.717614   0.055325  -0.563769   2.314757 -10.260596 -19.459662 -33.444185  11.924814 -36.635598 -25.922691  -4.380733  -0.233052 -41.957752  -0.078466  -5.120226  -7.138923   8.115381 -56.928784  -5.880208  -8.587588  83.932780   0.000090   0.011224 -35.613138 -11.768309   1.418305  -2.867734   0.002732   0.013783 -61.758666   1.002360   8.609220  92.399826   0.003135   0.004675 -25.511071   4.905703  -0.721757 -27.034769  -0.022498   0.005393
 -2.347145   0.721882   3.937955  11.944440  -2.391950  -2.975726  41.861721  -0.877455  -0.255300 -10.419921  -1.840518  -1.845973 -12.630398   2.395198  -4.315327 -19.812894  39.564743  -7.000693 -37.351324  30.977959   6.413145  -0.187294  38.694871   0.051741  -0.585592   2.253450 -10.428433 -19.401703 -33.459926  13.833932 -37.299743 -26.568750  -3.433118  -0.216387 -42.834764  -0.065520  -5.183027  -7.554801   8.280766 -55.233204  -5.956999  -8.876979  82.105767  -0.001120   0.012983 -33.873237 -12.169281   1.990134  -4.921533   0.002682   0.022303 -60.236558   1.149837   8.125403  90.783256   0.005132   0.007757 -22.956768   4.942277  -1.293981 -30.319254  -0.029737   0.005233
 -2.345077   0.734465   3.946432  11.877531  -2.242483  -2.775677  40.610711  -0.770938  -0.455975 -10.254689  -1.858675  -1.769399 -12.116627   2.253028  -4.340592 -20.142553  39.562784  -8.383640 -38.061937  31.414062   5.725656  -0.180157  39.603171   0.048926  -0.610010   2.176683 -10.551916 -19.357228 -33.409846  15.615411 -37.905026 -27.145536  -2.537054  -0.200241 -43.644262  -0.054422  -5.247362  -7.905544   8.387238 -53.498915  -6.036774  -9.138104  80.037455  -0.003781   0.013602 -31.990028 -12.519049   2.515933  -7.084861   0.000361   0.027056 -58.662445   1.293828   7.622370  88.906613   0.006492   0.010345 -20.347122   4.931545  -1.788921 -33.598269  -0.033493   0.004612
